<svg width="32" height="32" viewBox="0 0 32 32" fill="none" xmlns="http://www.w3.org/2000/svg">
<rect width="32" height="32" rx="4" fill="#DB262D" fill-opacity="0.1"/>
<path d="M18.3201 9L17.7353 9.06156C16.9119 9.15391 16.1116 9.38476 15.3728 9.75414C14.611 10.1312 13.9184 10.6314 13.3259 11.2393C13.3028 11.2701 13.2489 11.2855 13.2105 11.2778C12.7949 11.2162 12.3794 11.1932 11.9638 11.2162C11.1174 11.2547 10.2786 11.4779 9.51674 11.8549C8.03925 12.5937 7.00808 13.7403 6.40015 15.2793C6.17969 15.8508 6.04987 16.4531 6.01539 17.0646C6.0146 17.101 6.00943 17.1372 6 17.1724V17.8188L6.06156 18.3113C6.14621 18.9885 6.33859 19.6426 6.6464 20.2505C7.33128 21.6202 8.38553 22.6283 9.80146 23.2439C10.4479 23.5287 11.1404 23.698 11.8407 23.7364C11.8638 23.7364 11.8869 23.7364 11.91 23.7441H19.0589L19.5129 23.698C20.3286 23.6056 21.1212 23.3748 21.8599 23.0054C23.1143 22.3898 24.1685 21.4356 24.8996 20.2505C25.3998 19.4656 25.7384 18.5883 25.8846 17.6726L25.9846 16.8107C25.9854 16.7743 25.9906 16.7381 26 16.703V16.0412L25.9615 15.4871C25.8692 14.6714 25.6383 13.8788 25.2689 13.1401C24.6456 11.8857 23.6914 10.8315 22.4987 10.1004C21.7214 9.60793 20.8519 9.26933 19.9361 9.12312L19.0435 9.01539C19.005 9.01539 18.9665 9.0077 18.928 9H18.3278H18.3201ZM18.6279 10.4082C20.3978 10.4082 21.9061 11.0931 23.122 12.4552C23.8145 13.2401 24.2763 14.1943 24.4686 15.2255C24.5918 15.8642 24.6225 16.5183 24.5302 17.157C24.3686 18.2805 23.9454 19.2809 23.2143 20.1658C22.3678 21.2047 21.1905 21.928 19.8823 22.2051C19.1824 22.36 18.4606 22.3887 17.7507 22.2897C16.8349 22.1743 16.0038 21.8742 15.2497 21.3278C15.0496 21.1816 14.8649 21.0277 14.688 20.8507L11.6329 17.8265C11.379 17.5725 11.3636 17.3032 11.4867 17.0492C11.6098 16.7722 11.9023 16.6106 12.2024 16.6568C12.3794 16.6722 12.5102 16.7722 12.641 16.903L15.3959 19.6733C16.0861 20.3784 16.9948 20.8286 17.9738 20.9508C19.5975 21.1662 20.9827 20.666 22.0754 19.4502C22.6679 18.7884 23.0296 17.9958 23.1835 17.1031C23.2973 16.4796 23.2744 15.8387 23.1163 15.2249C22.9582 14.6111 22.6687 14.0389 22.2678 13.5479C21.5367 12.6168 20.5825 12.0396 19.4282 11.8319C18.2509 11.6241 17.1351 11.8472 16.1193 12.4937C16.0962 12.509 16.0346 12.5167 16.0115 12.5013C15.6422 12.232 15.2497 11.9935 14.8419 11.7857C14.8419 11.7857 14.8342 11.778 14.8265 11.7626C15.1466 11.4932 15.498 11.2632 15.873 11.0777C16.5502 10.7083 17.3043 10.4852 18.0739 10.4236L18.6356 10.4005L18.6279 10.4082ZM12.287 12.6245C13.5029 12.6014 14.611 13.0631 15.6037 13.9865L17.6506 16.0489C17.843 16.2412 17.8815 16.4875 17.7968 16.7414C17.7122 16.9954 17.4967 17.1262 17.2274 17.1647C17.1311 17.1773 17.0332 17.1664 16.9421 17.1329C16.8509 17.0994 16.7693 17.0443 16.7041 16.9723L14.7572 15.01C14.2262 14.4636 13.6029 14.1558 12.8642 14.025C11.2328 13.7326 9.58599 14.6791 8.99346 16.2259C8.23932 18.1958 9.43209 20.4198 11.479 20.8892C11.8792 20.9815 12.3101 20.9815 12.7257 20.9738C12.8411 20.9661 12.9104 21.0046 12.995 21.0816L14.2416 22.2589C14.2647 22.282 14.3032 22.3051 14.3263 22.3359C14.2724 22.3359 14.2416 22.3436 14.2109 22.3436H12.2947C10.0169 22.3436 8.03925 20.7584 7.54675 18.5344C7.00038 16.0796 8.40862 13.5941 10.8172 12.8707C11.2943 12.7168 11.7868 12.6399 12.287 12.6245Z" fill="#DB262D"/>
</svg>
