<svg width="32" height="32" viewBox="0 0 32 32" fill="none" xmlns="http://www.w3.org/2000/svg">
<rect width="32" height="32" rx="4" fill="#E61E97" fill-opacity="0.1"/>
<mask id="mask0_868_50" style="mask-type:luminance" maskUnits="userSpaceOnUse" x="7" y="6" width="19" height="20">
<path d="M7 6H25.9062V26H7V6Z" fill="white"/>
</mask>
<g mask="url(#mask0_868_50)">
<mask id="mask1_868_50" style="mask-type:luminance" maskUnits="userSpaceOnUse" x="7" y="6" width="19" height="20">
<path d="M7 6H25.9062V26H7V6Z" fill="white"/>
</mask>
<g mask="url(#mask1_868_50)">
<path d="M25.8281 9.35938L25.125 19.9844L18.6406 6L25.8281 9.35938ZM21.2969 23.1094L16.4531 25.9219L11.5312 23.1094L12.4688 20.6875H20.3594L21.2969 23.1094ZM16.4531 11.3125L18.9531 17.5625H13.875L16.4531 11.3125ZM7.70312 19.9844L7 9.35938L14.1875 6L7.70312 19.9844Z" fill="url(#paint0_linear_868_50)"/>
<path d="M25.8281 9.35938L25.125 19.9844L18.6406 6L25.8281 9.35938ZM21.2969 23.1094L16.4531 25.9219L11.5312 23.1094L12.4688 20.6875H20.3594L21.2969 23.1094ZM16.4531 11.3125L18.9531 17.5625H13.875L16.4531 11.3125ZM7.70312 19.9844L7 9.35938L14.1875 6L7.70312 19.9844Z" fill="url(#paint1_linear_868_50)"/>
</g>
</g>
<defs>
<linearGradient id="paint0_linear_868_50" x1="11.1563" y1="24.1172" x2="26.1406" y2="16.9922" gradientUnits="userSpaceOnUse">
<stop stop-color="#E40035"/>
<stop offset="0.2" stop-color="#F60A48"/>
<stop offset="0.4" stop-color="#F20755"/>
<stop offset="0.5" stop-color="#DC087D"/>
<stop offset="0.7" stop-color="#9717E7"/>
<stop offset="1" stop-color="#6C00F5"/>
</linearGradient>
<linearGradient id="paint1_linear_868_50" x1="10.4766" y1="8.39844" x2="20.2812" y2="19.5937" gradientUnits="userSpaceOnUse">
<stop stop-color="#FF31D9"/>
<stop offset="1" stop-color="#FF5BE1" stop-opacity="0"/>
</linearGradient>
</defs>
</svg>
