<svg width="32" height="32" viewBox="0 0 32 32" fill="none" xmlns="http://www.w3.org/2000/svg">
<rect width="32" height="32" rx="4" fill="#EEEEEE" fill-opacity="0.1"/>
<path d="M26 21.3023C25.2725 21.4873 24.8225 21.3104 24.4187 20.7042L21.5475 16.7317L21.1325 16.1817L17.7794 20.7173C17.3963 21.2629 16.9944 21.5004 16.2794 21.3073L20.5731 15.5436L16.5756 10.3373C17.2631 10.2036 17.7381 10.2717 18.16 10.8873L21.1381 14.9092L24.1381 10.9092C24.5225 10.3636 24.9356 10.1561 25.6256 10.3573L24.0756 12.4123L21.9756 15.1467C21.7256 15.4592 21.76 15.6729 21.99 15.9748L26 21.3023ZM6.005 15.4473L6.35625 13.7198C7.3125 10.3011 11.2313 8.88044 13.9338 10.9929C15.5131 12.2354 15.9056 13.9929 15.8275 15.9617H6.925C6.79125 19.5054 9.34188 21.6442 12.5938 20.5529C13.7344 20.1698 14.4062 19.2767 14.7425 18.1592C14.9131 17.5992 15.1956 17.5117 15.7219 17.6717C15.4531 19.0692 14.8469 20.2367 13.5656 20.9673C11.6512 22.0611 8.91875 21.7073 7.48125 20.1873C6.625 19.3054 6.27125 18.1879 6.1125 16.9929C6.0875 16.7954 6.0375 16.6073 6 16.4179C6.00333 16.0946 6.005 15.7713 6.005 15.4479V15.4473ZM6.94125 15.2098H14.9863C14.9338 12.6473 13.3381 10.8273 11.1575 10.8117C8.76375 10.7929 7.045 12.5698 6.94125 15.2098Z" fill="#606060"/>
</svg>
