<svg width="32" height="32" viewBox="0 0 32 32" fill="none" xmlns="http://www.w3.org/2000/svg">
<rect width="32" height="32" rx="4" fill="white" fill-opacity="0.1"/>
<mask id="mask0_868_18" style="mask-type:luminance" maskUnits="userSpaceOnUse" x="9" y="6" width="14" height="20">
<path d="M9 6H22.3308V26H9V6Z" fill="white"/>
</mask>
<g mask="url(#mask0_868_18)">
<path d="M12.3308 26C14.1692 26 15.6615 24.5077 15.6615 22.6693V19.3385H12.3308C10.4923 19.3385 9 20.8308 9 22.6693C9 24.5077 10.4923 26 12.3308 26Z" fill="#0ACF83"/>
<path d="M9 16C9 14.1615 10.4923 12.6692 12.3308 12.6692H15.6615V19.3384H12.3308C10.4923 19.3384 9 17.8461 9 16.0077V16Z" fill="#A259FF"/>
<path d="M9 9.33077C9 7.49231 10.4923 6 12.3308 6H15.6615V12.6692H12.3308C10.4923 12.6692 9 11.1769 9 9.33846V9.33077Z" fill="#F24E1E"/>
<path d="M15.6689 6H18.9997C20.8382 6 22.3305 7.49231 22.3305 9.33077C22.3305 11.1692 20.8382 12.6615 18.9997 12.6615H15.6689V6Z" fill="#FF7262"/>
<path d="M22.3305 16C22.3305 17.8384 20.8382 19.3307 18.9997 19.3307C17.1613 19.3307 15.6689 17.8384 15.6689 16C15.6689 14.1615 17.1613 12.6692 18.9997 12.6692C20.8382 12.6692 22.3305 14.1615 22.3305 16Z" fill="#1ABCFE"/>
</g>
</svg>
