<svg width="32" height="32" viewBox="0 0 32 32" fill="none" xmlns="http://www.w3.org/2000/svg">
<rect width="32" height="32" rx="4" fill="#DE4C36" fill-opacity="0.1"/>
<path d="M25.6167 15.1083L16.8833 6.375C16.3833 5.875 15.5667 5.875 15.0583 6.375L13.2417 8.18333L15.5417 10.4833C16.3417 10.2083 17.2083 10.6333 17.4833 11.4333C17.5917 11.7583 17.5917 12.1083 17.4833 12.4333L19.7 14.65C20.5 14.375 21.375 14.8 21.65 15.6C21.925 16.4 21.5 17.275 20.7 17.55C19.9 17.825 19.025 17.4 18.75 16.6C18.625 16.25 18.6417 15.8583 18.7833 15.5167L16.7167 13.45V18.8917C17.475 19.2667 17.7833 20.1833 17.4083 20.9417C17.0333 21.7 16.1167 22.0083 15.3583 21.6333C14.6 21.2583 14.2917 20.3417 14.6667 19.5833C14.8333 19.25 15.1167 18.9833 15.4583 18.8417V13.35C14.675 13.0333 14.3 12.1333 14.625 11.35C14.625 11.35 14.625 11.35 14.625 11.3417L12.3583 9.075L6.375 15.0583C5.875 15.5583 5.875 16.375 6.375 16.8833L15.1083 25.6167C15.6083 26.1167 16.425 26.1167 16.9333 25.6167L25.625 16.925C26.125 16.425 26.125 15.6083 25.625 15.1" fill="#DE4C36"/>
</svg>
