<svg width="32" height="32" viewBox="0 0 32 32" fill="none" xmlns="http://www.w3.org/2000/svg">
<rect width="32" height="32" rx="4" fill="#E8D44D" fill-opacity="0.1"/>
<path d="M6 6H26V26H6V6Z" fill="#F0DB4F"/>
<path d="M24.3633 21.23C24.2169 20.3175 23.6219 19.5513 21.8595 18.8365C21.2473 18.5551 20.5648 18.3536 20.3614 17.8897C20.2892 17.6198 20.2796 17.4677 20.3253 17.3042C20.4565 16.7738 21.0895 16.6084 21.5914 16.7604C21.9146 16.8688 22.2207 17.1179 22.4051 17.5152L23.869 16.5761C23.6485 16.2339 23.5306 16.076 23.3861 15.9297C22.8671 15.3498 22.1599 15.0513 21.0287 15.0742L20.4393 15.1502C19.8747 15.2928 19.3367 15.5894 19.0211 15.9867C18.0743 17.0608 18.3443 18.9411 19.4964 19.7148C20.6314 20.5665 22.2987 20.7605 22.5116 21.557C22.7188 22.5323 21.7949 22.8479 20.8766 22.7358C20.1998 22.5951 19.8234 22.251 19.4165 21.6255L17.8975 22.5019C18.08 22.9011 18.272 23.0818 18.5781 23.4278C20.0268 24.8973 23.6523 24.8251 24.3025 22.6008C24.3291 22.5247 24.504 22.0152 24.3633 21.23ZM16.8728 15.192H15.0021L14.9945 20.0285C14.9945 21.057 15.0477 22 14.8804 22.289C14.6067 22.8574 13.8975 22.7871 13.5743 22.6768C13.2454 22.5152 13.0781 22.2851 12.8842 21.9601C12.831 21.8669 12.7911 21.7947 12.7777 21.789L11.2568 22.7205C11.5097 23.2395 11.8823 23.6901 12.3595 23.9829C13.0724 24.4106 14.0306 24.5418 15.0325 24.3118C15.6846 24.1216 16.2473 23.7281 16.542 23.1293C16.9679 22.3441 16.8766 21.3935 16.8728 20.3422V15.192Z" fill="#323330"/>
</svg>
