<svg width="32" height="32" viewBox="0 0 32 32" fill="none" xmlns="http://www.w3.org/2000/svg">
<rect width="32" height="32" rx="4" fill="#1163A4" fill-opacity="0.1"/>
<path fill-rule="evenodd" clip-rule="evenodd" d="M25.5333 20.7088L25.4416 20.9422C23.9166 23.9089 21.2165 25.734 17.358 25.8173C15.558 25.8507 13.8413 25.3923 12.7162 24.8923C10.3358 23.795 8.38042 21.9479 7.14937 19.6338C5.55765 16.542 5.26597 12.2419 8.58275 9.03344C8.63275 9.03344 8.18273 9.73346 8.23274 9.73346L8.14107 10.0335C5.74932 17.5171 13.1162 23.9339 20.2748 23.2006C21.9915 23.0256 24.1916 22.0839 25.5333 20.7255V20.7088ZM21.1998 17.6171C22.9999 17.6254 24.8833 16.7837 26 15.6087C25.025 18.0837 22.1999 19.6755 18.4164 19.1671C15.2496 18.7421 12.2329 15.5503 11.9162 12.3585C11.6912 10.0335 12.4995 8.64176 13.8329 6.95837C13.3662 7.84173 13.1912 8.51675 13.1496 8.9501C12.6412 13.9836 17.1664 17.5921 21.1915 17.6171H21.1998ZM25.8167 11.3668C25.5333 12.0085 23.9249 13.2252 23.2166 13.3752C20.3998 13.9753 18.5914 12.6419 17.6497 11.1168C17.508 10.8918 17.2497 10.2668 17.1997 10.1085C16.833 8.85843 16.9997 6.97503 18.0997 6C17.7664 6.92503 17.7247 8.0084 17.8914 8.70842C17.9997 9.13344 18.3164 9.87513 18.6331 10.3418C19.2164 11.1918 19.5831 11.3918 20.3331 11.8419C20.6665 12.0419 21.0332 12.2085 21.1915 12.2502C21.8999 12.4586 23.3999 13.0086 25.8167 11.3668Z" fill="#21609B"/>
</svg>
