<svg width="32" height="32" viewBox="0 0 32 32" fill="none" xmlns="http://www.w3.org/2000/svg">
<rect width="32" height="32" rx="4" fill="#01EC64" fill-opacity="0.1"/>
<path d="M17.3962 8.2246C16.5535 7.23192 15.8322 6.21782 15.6894 6.01071C15.6751 5.99643 15.6537 5.99643 15.6394 6.01071C15.4894 6.21782 14.7681 7.23192 13.9326 8.2246C6.72672 17.4087 15.0681 23.6147 15.0681 23.6147L15.1395 23.6647C15.2038 24.6217 15.3538 26 15.3538 26H15.9751C15.9751 26 16.1322 24.6288 16.1893 23.6647L16.2607 23.6076C16.2607 23.6076 24.6092 17.4158 17.4034 8.2246H17.3962ZM15.6537 23.4719C15.6537 23.4719 15.2823 23.1505 15.1824 22.9863V22.972L15.6323 12.9666C15.6323 12.9666 15.6823 12.938 15.6823 12.9666L16.1322 22.972V22.9863C16.0322 23.1505 15.6608 23.4719 15.6608 23.4719H15.6537Z" fill="#01EC64"/>
</svg>
