<svg width="32" height="32" viewBox="0 0 32 32" fill="none" xmlns="http://www.w3.org/2000/svg">
<rect width="32" height="32" rx="4" fill="#66B848" fill-opacity="0.1"/>
<path d="M16.245 6.12712C15.9445 5.95763 15.5901 5.95763 15.2974 6.12712L7.46225 10.6495C7.16179 10.819 7 11.1348 7 11.4661V20.5339C7 20.8729 7.1849 21.1888 7.46225 21.3505L15.2974 25.8729C15.5978 26.0424 15.9522 26.0424 16.245 25.8729L24.0801 21.3505C24.3806 21.181 24.5424 20.8652 24.5424 20.5339V11.4661C24.5424 11.1348 24.3575 10.8112 24.0801 10.6495L16.245 6.12712Z" fill="url(#paint0_linear_808_22)"/>
<mask id="mask0_808_22" style="mask-type:luminance" maskUnits="userSpaceOnUse" x="7" y="6" width="18" height="20">
<path d="M16.245 6.12712C15.9445 5.95763 15.5901 5.95763 15.2974 6.12712L7.46225 10.6495C7.16179 10.819 7 11.1348 7 11.4661V20.5339C7 20.8729 7.1849 21.1888 7.46225 21.3505L15.2974 25.8729C15.5978 26.0424 15.9522 26.0424 16.245 25.8729L24.0801 21.3505C24.3806 21.181 24.5424 20.8652 24.5424 20.5339V11.4661C24.5424 11.1348 24.3575 10.8112 24.0801 10.6495L16.245 6.12712Z" fill="white"/>
</mask>
<g mask="url(#mask0_808_22)">
<path d="M24.1026 10.6495L16.2289 6.12712C16.1519 6.0886 16.0594 6.05008 15.9901 6.03467L7.16113 21.1502C7.23817 21.2427 7.33062 21.3197 7.42307 21.3737L15.2967 25.896C15.5201 26.027 15.7821 26.0655 16.0209 25.9884L24.3029 10.8344C24.249 10.7573 24.1719 10.7034 24.0949 10.6495H24.1026Z" fill="url(#paint1_linear_808_22)"/>
</g>
<mask id="mask1_808_22" style="mask-type:luminance" maskUnits="userSpaceOnUse" x="7" y="6" width="18" height="20">
<path d="M16.245 6.12712C15.9445 5.95763 15.5901 5.95763 15.2974 6.12712L7.46225 10.6495C7.16179 10.819 7 11.1348 7 11.4661V20.5339C7 20.8729 7.1849 21.1888 7.46225 21.3505L15.2974 25.8729C15.5978 26.0424 15.9522 26.0424 16.245 25.8729L24.0801 21.3505C24.3806 21.181 24.5424 20.8652 24.5424 20.5339V11.4661C24.5424 11.1348 24.3575 10.8112 24.0801 10.6495L16.245 6.12712Z" fill="white"/>
</mask>
<g mask="url(#mask1_808_22)">
<path d="M24.126 21.3583C24.3494 21.2273 24.5189 21.0039 24.5883 20.7651L15.9519 6.01159C15.7285 5.97307 15.4896 5.99619 15.2816 6.11945L7.46191 10.6264L15.898 26.0039C16.0058 25.9885 16.1368 25.95 16.2524 25.8883L24.126 21.3429V21.3583Z" fill="url(#paint2_linear_808_22)"/>
</g>
<defs>
<linearGradient id="paint0_linear_808_22" x1="19.527" y1="9.35747" x2="10.1454" y2="21.7075" gradientUnits="userSpaceOnUse">
<stop stop-color="#41873F"/>
<stop offset="0.33" stop-color="#418B3D"/>
<stop offset="0.64" stop-color="#419637"/>
<stop offset="0.93" stop-color="#3FA92D"/>
<stop offset="1" stop-color="#3FAE2A"/>
</linearGradient>
<linearGradient id="paint1_linear_808_22" x1="14.2776" y1="16.6398" x2="34.9914" y2="5.98215" gradientUnits="userSpaceOnUse">
<stop offset="0.14" stop-color="#41873F"/>
<stop offset="0.4" stop-color="#54A044"/>
<stop offset="0.71" stop-color="#66B848"/>
<stop offset="0.91" stop-color="#6CC04A"/>
</linearGradient>
<linearGradient id="paint2_linear_808_22" x1="6.02663" y1="16.2027" x2="25.2685" y2="16.2027" gradientUnits="userSpaceOnUse">
<stop offset="0.09" stop-color="#6CC04A"/>
<stop offset="0.29" stop-color="#66B848"/>
<stop offset="0.6" stop-color="#54A044"/>
<stop offset="0.86" stop-color="#41873F"/>
</linearGradient>
</defs>
</svg>
