<svg width="32" height="32" viewBox="0 0 32 32" fill="none" xmlns="http://www.w3.org/2000/svg">
<rect width="32" height="32" rx="4" fill="#EEEEEE" fill-opacity="0.1"/>
<path d="M7.20736 6.86781L18.2735 6.05265C19.6347 5.9373 19.9807 6.0142 20.8343 6.6371L24.3641 9.12872C24.9486 9.55937 25.1408 9.67472 25.1408 10.1361V23.7785C25.1408 24.6321 24.8332 25.1396 23.7412 25.2165L10.8909 25.9932C10.0758 26.0317 9.68359 25.9163 9.26063 25.3703L6.66135 21.9867C6.19225 21.3638 6 20.8947 6 20.3564V8.22128C6 7.52147 6.30761 6.93702 7.19967 6.86012L7.20736 6.86781Z" fill="white"/>
<path d="M18.2736 6.04496L7.20748 6.86012C6.31542 6.93702 6.00781 7.52147 6.00781 8.22128V20.3487C6.00781 20.8947 6.20007 21.3561 6.66917 21.979L9.26844 25.3627C9.69909 25.9087 10.0836 26.024 10.8988 25.9856L23.749 25.2089C24.8333 25.1319 25.1486 24.6244 25.1486 23.7708V10.1284C25.1486 9.6901 24.9718 9.55937 24.4565 9.18255L24.3642 9.12103L20.8345 6.62941C19.9808 6.00651 19.6271 5.92961 18.2736 6.04496ZM11.191 9.90542C10.1451 9.97464 9.90673 9.99002 9.30689 9.50554L7.79193 8.29818C7.63813 8.14438 7.71503 7.94443 8.09954 7.90598L18.735 7.12927C19.6271 7.05237 20.0962 7.35998 20.4423 7.63683L22.2648 8.95953C22.3417 8.99798 22.534 9.22869 22.3033 9.22869L11.3217 9.89004H11.1833L11.191 9.90542ZM9.96825 23.6554V12.0741C9.96825 11.5665 10.1221 11.3358 10.5912 11.2973L23.203 10.5591C23.6337 10.5206 23.8259 10.7898 23.8259 11.2973V22.8018C23.8259 23.3094 23.749 23.7323 23.0492 23.7708L10.9757 24.4706C10.2759 24.509 9.96825 24.2783 9.96825 23.6554ZM21.888 12.697C21.9649 13.0507 21.888 13.3968 21.5343 13.4352L20.9498 13.5506V22.102C20.4423 22.3712 19.9808 22.5327 19.5886 22.5327C18.9657 22.5327 18.8119 22.3404 18.3505 21.756L14.5439 15.773V21.5637L15.7513 21.8329C15.7513 21.8329 15.7513 22.5327 14.7823 22.5327L12.1061 22.6865C12.0292 22.5327 12.1061 22.1405 12.3753 22.0636L13.0751 21.8713V14.2119L12.1061 14.135C12.0292 13.789 12.2215 13.2814 12.7675 13.243L15.6436 13.0507L19.604 19.1106V13.7428L18.5966 13.6275C18.5197 13.1968 18.8273 12.8892 19.2195 12.8508L21.8957 12.697H21.888Z" fill="black"/>
</svg>
