<svg width="32" height="32" viewBox="0 0 32 32" fill="none" xmlns="http://www.w3.org/2000/svg">
<rect width="32" height="32" rx="4" fill="#C60000" fill-opacity="0.1"/>
<path d="M16 6C13.3478 6 10.8043 7.05357 8.92893 8.92893C7.05357 10.8043 6 13.3478 6 16C6 18.6522 7.05357 21.1957 8.92893 23.0711C10.8043 24.9464 13.3478 26 16 26C18.6522 26 21.1957 24.9464 23.0711 23.0711C24.9464 21.1957 26 18.6522 26 16C26 13.3478 24.9464 10.8043 23.0711 8.92893C21.1957 7.05357 18.6522 6 16 6ZM20.7375 10.8687C20.7507 10.8091 20.7591 10.7485 20.7625 10.6875C20.7625 10.6437 20.775 10.6125 20.7875 10.6125C20.8125 10.6125 21.4625 11.0812 21.4875 11.1187C21.5 11.1375 21.475 11.1875 21.4375 11.2375L21.3625 11.325L21.0437 11.15C20.7375 10.9875 20.725 10.975 20.7438 10.8625L20.7375 10.8687ZM17.9125 9.88125L18.4125 9.90625H18.5563L18.5937 10.1875C18.6187 10.3437 18.625 10.4813 18.6188 10.4938C18.6063 10.5063 18.4 10.5188 18.1563 10.5312C17.65 10.55 17.7062 10.5875 17.6125 10.1313L17.5562 9.8625L17.9062 9.8875L17.9125 9.88125ZM15.2375 10.4375C15.425 10.3375 15.6 10.2625 15.6188 10.2625C15.6625 10.2625 16.2063 10.8438 16.1813 10.8625C16.1375 10.8938 15.45 11.275 15.4375 11.275C15.2544 11.0814 15.0833 10.8769 14.925 10.6625C14.9062 10.6313 15.0062 10.5562 15.2375 10.4375ZM12.7625 12.55C12.9437 12.3437 13.0875 12.225 13.1125 12.2437C13.3688 12.3937 13.85 12.7375 13.8375 12.7625C13.8312 12.7812 13.6938 12.95 13.5375 13.1312L13.25 13.4687L13.1375 13.4L12.4438 12.9125C12.4438 12.9 12.5875 12.7375 12.7563 12.55H12.7625ZM10.8375 15.7625L11.0125 15.2937C11.0438 15.2437 11.0625 15.25 11.5 15.425L11.9938 15.6188L12.0812 15.65L11.9188 16.0937L11.7563 16.5375C11.7563 16.5375 11.5063 16.4688 11.2125 16.375L10.675 16.2L10.8313 15.7625H10.8375ZM10.8562 20.3375C10.8562 20.3375 9.775 20.2375 9.75 20.2125C9.7375 20.2062 9.85625 19.175 9.875 19.1125C9.8875 19.075 11.0062 19.1312 11.05 19.175C11.0687 19.2 10.8875 20.3063 10.8562 20.3375ZM16.9875 21L16.7375 20.1937C16.7375 20.1937 16.9688 20.1875 17.25 20.1875H17.7562L17.9625 20.625C18.075 20.8687 18.1563 21.0687 18.1438 21.0812C17.7571 21.0768 17.371 21.0497 16.9875 21ZM17.2125 17.75L17.3625 17.8375L17.375 18.1938C17.3813 18.3875 17.375 18.5437 17.3625 18.5437C17.0513 18.4221 16.7448 18.2887 16.4437 18.1438C16.4312 18.1313 16.4312 17.95 16.4437 17.75L16.4875 17.375C16.5188 17.375 17.0688 17.6625 17.2125 17.75ZM16.6438 15.5625L16.7938 15.2625L16.9125 15.35L17.2375 15.5875C17.35 15.675 17.4437 15.7563 17.4437 15.775C17.4437 15.7938 17.4063 15.9688 17.3625 16.1625C17.2875 16.475 17.275 16.5062 17.2188 16.4625C17.1563 16.4187 16.675 16.0063 16.5562 15.9063C16.5125 15.8688 16.5313 15.8063 16.65 15.5625H16.6438ZM18.0187 14.3062L17.8875 14.5312L17.6188 14.2437C17.1875 13.7812 17.2 13.825 17.4437 13.5937C17.5562 13.4812 17.6688 13.3937 17.6875 13.3937C17.7313 13.3937 18.1375 13.9938 18.1375 14.0563C18.1375 14.075 18.0812 14.1938 18.0125 14.3125L18.0187 14.3062ZM19.1687 13.0187L18.95 13.1938L18.8813 13.075L18.7313 12.8L18.65 12.6438L18.7937 12.6062L19.0813 12.5312C19.2688 12.475 19.2813 12.4813 19.3375 12.675L19.3875 12.8375L19.175 13.0187H19.1687ZM21.0437 12.7437C20.5812 12.6875 20.6 12.6937 20.6 12.5312C20.6 12.35 20.625 12.3437 20.9937 12.4312C21.2062 12.4812 21.2063 12.4813 21.2188 12.625L21.2313 12.7687L21.0437 12.7437ZM22.125 12.4188C22.0562 12.525 21.9875 12.6062 21.975 12.6062C21.9625 12.6062 21.875 12.55 21.7938 12.4875C21.5688 12.3063 21.1313 12.1062 20.8 12.0375C19.8563 11.8312 18.625 12.3 17.6813 13.2125C16.9438 13.9187 16.4937 14.75 16.2562 15.8188C16.1437 16.3438 16.1125 17.5937 16.2 18.325C16.3187 19.3812 16.6437 20.7063 17.0187 21.6813L17.1937 22.1375H11.1063L11.0813 22.0375C11.0375 21.875 11.1 20.6 11.1625 20.1437C11.3563 18.8125 11.7125 17.5125 12.1875 16.375C12.4625 15.7313 13.175 14.3125 13.4937 13.775C13.8625 13.1562 14.1563 12.7875 14.675 12.2687C15.6438 11.3062 16.7125 10.7687 18.0062 10.6062C18.5437 10.5375 19.275 10.6187 19.8875 10.8125C20.5187 11.0062 21.55 11.5938 22.0375 12.0438L22.2437 12.2313L22.1188 12.4125L22.125 12.4188Z" fill="#CC0000"/>
</svg>
