<svg width="32" height="32" viewBox="0 0 32 32" fill="none" xmlns="http://www.w3.org/2000/svg">
<rect width="32" height="32" rx="4" fill="#00D8FF" fill-opacity="0.101961"/>
<path d="M23.7328 11.921C23.4774 11.8334 23.2198 11.7522 22.9603 11.6775L23.0796 11.1505C23.6644 8.3117 23.2821 6.02467 21.9763 5.27167C20.7242 4.5498 18.6767 5.30251 16.6087 7.10223C16.4049 7.27992 16.2056 7.46273 16.0111 7.65048C15.8808 7.52563 15.7483 7.40321 15.6135 7.28326C13.4462 5.35895 11.2738 4.54792 9.96934 5.30308C8.71844 6.0272 8.34803 8.17717 8.87453 10.8676C8.92691 11.1341 8.98606 11.3992 9.05191 11.6626C8.74441 11.75 8.44769 11.843 8.16372 11.942C5.62272 12.8279 4 14.2163 4 15.6564C4 17.1437 5.74206 18.6355 8.38863 19.5401C8.60319 19.6132 8.81954 19.6809 9.03747 19.7431C8.96669 20.0269 8.90385 20.3125 8.84903 20.5998C8.34709 23.2435 8.73906 25.3427 9.98659 26.0622C11.2751 26.8053 13.4377 26.0416 15.5434 24.2008C15.7142 24.0512 15.8812 23.8973 16.0443 23.7393C16.255 23.9426 16.4713 24.14 16.693 24.3312C18.7328 26.0864 20.7473 26.7952 21.9936 26.0737C23.2809 25.3285 23.6993 23.0734 23.1561 20.3298C23.1133 20.1149 23.0654 19.901 23.0122 19.6884C23.1641 19.6434 23.3132 19.597 23.4585 19.5489C26.2098 18.6373 28 17.1636 28 15.6564C28 14.211 26.3249 12.8133 23.7328 11.921ZM23.1361 18.5757C23.0023 18.6198 22.8679 18.6618 22.7329 18.7018C22.4292 17.7402 22.0193 16.7178 21.5177 15.6613C21.9963 14.6301 22.3905 13.6207 22.6857 12.6654C22.9312 12.7364 23.1694 12.8113 23.3991 12.8904C25.6201 13.655 26.9747 14.7853 26.9747 15.6564C26.9747 16.5841 25.5117 17.7885 23.1361 18.5757ZM22.1504 20.5289C22.3906 21.742 22.4248 22.8389 22.2657 23.6965C22.1228 24.467 21.8354 24.9806 21.4799 25.1864C20.7236 25.6242 19.1061 25.0552 17.3617 23.554C17.1555 23.3762 16.9543 23.1927 16.7582 23.0037C17.4346 22.2641 18.1104 21.4044 18.77 20.4494C19.9303 20.3465 21.0264 20.1781 22.0204 19.9483C22.0683 20.1408 22.1116 20.3344 22.1504 20.5289ZM12.1821 25.1108C11.4432 25.3717 10.8546 25.3792 10.4988 25.174C9.74181 24.7375 9.42709 23.0519 9.85637 20.791C9.9074 20.5239 9.96583 20.2582 10.0316 19.9943C11.0147 20.2118 12.1028 20.3681 13.2658 20.4625C13.9299 21.3969 14.6252 22.2557 15.326 23.0078C15.1771 23.1519 15.0247 23.2923 14.8688 23.4289C13.9376 24.2428 13.0045 24.8203 12.1821 25.1108ZM8.72031 18.57C7.55003 18.17 6.58356 17.6501 5.92113 17.0829C5.32581 16.5731 5.02534 16.067 5.02534 15.6564C5.02534 14.7824 6.32819 13.6677 8.50122 12.9101C8.76494 12.8183 9.04094 12.7315 9.32734 12.6502C9.62772 13.627 10.0217 14.6485 10.4971 15.6813C10.0155 16.7294 9.61591 17.7671 9.31262 18.7555C9.1137 18.6986 8.9162 18.6367 8.72031 18.57ZM9.88075 10.6706C9.42972 8.36561 9.72925 6.62683 10.4831 6.19042C11.286 5.72561 13.0614 6.38833 14.9327 8.04995C15.0548 8.15855 15.1748 8.26935 15.2928 8.3823C14.5955 9.13108 13.9066 9.98355 13.2483 10.9124C12.1196 11.017 11.0391 11.185 10.0457 11.4101C9.98455 11.1651 9.92953 10.9185 9.88075 10.6706ZM20.2333 13.227C19.9986 12.8217 19.7553 12.4215 19.5034 12.0267C20.2692 12.1236 21.0029 12.2521 21.6918 12.4092C21.485 13.0722 21.2272 13.7653 20.9238 14.476C20.7019 14.0551 20.4717 13.6387 20.2333 13.227ZM16.0115 9.11505C16.4844 9.62739 16.958 10.1994 17.4239 10.82C16.4789 10.7754 15.5323 10.7752 14.5873 10.8194C15.0536 10.2045 15.5313 9.6333 16.0115 9.11505ZM11.7627 13.234C11.5272 13.6424 11.3013 14.0562 11.0852 14.4751C10.7867 13.767 10.5312 13.0707 10.3226 12.3984C11.0073 12.2452 11.7376 12.1199 12.4984 12.0249C12.2438 12.4221 11.9984 12.8253 11.7627 13.234ZM12.5203 19.3608C11.7342 19.273 10.993 19.1543 10.3084 19.0052C10.5203 18.3208 10.7814 17.6097 11.0864 16.8865C11.3034 17.3057 11.5302 17.7197 11.7667 18.1283C12.0099 18.5483 12.2617 18.9596 12.5203 19.3608ZM16.0398 22.2699C15.5538 21.7456 15.0692 21.1656 14.5958 20.5418C15.0554 20.5598 15.5238 20.569 16 20.569C16.4831 20.569 16.9661 20.5582 17.4487 20.5368C16.9814 21.1719 16.5095 21.7527 16.0398 22.2699ZM20.9334 16.8495C21.2542 17.5808 21.5246 18.2881 21.7393 18.9608C21.0435 19.1196 20.2922 19.2475 19.5005 19.3424C19.7542 18.9403 19.9998 18.5331 20.2373 18.1212C20.4788 17.7025 20.7108 17.2785 20.9334 16.8495ZM19.3492 17.609C18.9857 18.2405 18.6017 18.8601 18.1979 19.4666C17.4664 19.5184 16.7333 19.5442 16 19.5438C15.2531 19.5438 14.5266 19.5205 13.8271 19.4752C13.4127 18.87 13.0214 18.2494 12.654 17.6146C12.2883 16.9832 11.9468 16.3382 11.63 15.6808C11.946 15.0233 12.2865 14.378 12.651 13.7461L12.6509 13.7462C13.0152 13.1142 13.4034 12.4962 13.8146 11.8936C14.5283 11.8396 15.2602 11.8115 15.9999 11.8115C16.7305 11.8114 17.4609 11.839 18.1894 11.8943C18.5965 12.4959 18.9822 13.1118 19.3458 13.7407C19.7115 14.3712 20.0566 15.0134 20.3805 15.6663C20.0599 16.3259 19.7159 16.9739 19.3492 17.609ZM21.4642 6.15986C22.2678 6.62336 22.5804 8.49245 22.0755 10.9435C22.0432 11.0999 22.007 11.2592 21.9677 11.4207C20.9718 11.1909 19.8906 11.02 18.7586 10.9137C18.0992 9.97464 17.4158 9.12086 16.7298 8.38173C16.9096 8.20844 17.0937 8.03964 17.2818 7.87548C19.0537 6.33358 20.7097 5.72476 21.4642 6.15986ZM16 13.5132C17.1836 13.5132 18.1431 14.4728 18.1431 15.6564C18.1431 16.84 17.1836 17.7995 16 17.7995C14.8164 17.7995 13.8569 16.84 13.8569 15.6564C13.8569 14.4728 14.8164 13.5132 16 13.5132Z" fill="#00D8FF"/>
</svg>
