<svg width="32" height="32" viewBox="0 0 32 32" fill="none" xmlns="http://www.w3.org/2000/svg">
<rect width="32" height="32" rx="4" fill="#00D8FF" fill-opacity="0.101961"/>
<path d="M22.444 12.7675C22.2311 12.6945 22.0165 12.6268 21.8002 12.5646L21.8997 12.1255C22.387 9.75975 22.0684 7.85389 20.9802 7.22639C19.9369 6.62483 18.2305 7.2521 16.5073 8.75186C16.3374 8.89993 16.1714 9.05227 16.0092 9.20874C15.9007 9.10469 15.7902 9.00267 15.6779 8.90272C13.8718 7.29913 12.0615 6.62327 10.9745 7.25256C9.93203 7.856 9.62336 9.64764 10.0621 11.8897C10.1058 12.1117 10.155 12.3326 10.2099 12.5522C9.95367 12.625 9.70641 12.7025 9.46977 12.785C7.35227 13.5233 6 14.6802 6 15.8803C6 17.1198 7.45172 18.363 9.65719 19.1168C9.83599 19.1776 10.0163 19.234 10.1979 19.2859C10.1389 19.5224 10.0865 19.7604 10.0409 19.9998C9.62258 22.203 9.94922 23.9523 10.9888 24.5519C12.0626 25.1711 13.8648 24.5347 15.6195 23.0007C15.7618 22.876 15.901 22.7477 16.0369 22.6161C16.2125 22.7855 16.3927 22.95 16.5775 23.1094C18.2773 24.572 19.9561 25.1626 20.9947 24.5614C22.0674 23.9404 22.4161 22.0612 21.9634 19.7748C21.9278 19.5957 21.8878 19.4175 21.8435 19.2403C21.9701 19.2028 22.0943 19.1642 22.2154 19.124C24.5082 18.3644 26 17.1363 26 15.8803C26 14.6758 24.6041 13.5111 22.444 12.7675ZM21.9467 18.3131C21.8353 18.3498 21.7233 18.3849 21.6108 18.4182C21.3577 17.6169 21.0161 16.7648 20.598 15.8844C20.997 15.0251 21.3254 14.1839 21.5714 13.3878C21.776 13.447 21.9745 13.5094 22.1659 13.5753C24.0167 14.2125 25.1456 15.1544 25.1456 15.8803C25.1456 16.6534 23.9264 17.6571 21.9467 18.3131ZM21.1253 19.9408C21.3255 20.9517 21.354 21.8658 21.2214 22.5804C21.1023 23.2225 20.8628 23.6505 20.5666 23.822C19.9363 24.1869 18.5884 23.7126 17.1348 22.4617C16.9629 22.3135 16.7952 22.1606 16.6319 22.0031C17.1955 21.3868 17.7587 20.6703 18.3084 19.8745C19.2752 19.7887 20.1887 19.6484 21.017 19.4569C21.0569 19.6173 21.093 19.7787 21.1253 19.9408ZM12.8184 23.759C12.2027 23.9764 11.7122 23.9826 11.4157 23.8117C10.7848 23.4479 10.5226 22.0433 10.8803 20.1592C10.9228 19.9366 10.9715 19.7152 11.0263 19.4952C11.8455 19.6765 12.7523 19.8068 13.7215 19.8854C14.2749 20.664 14.8544 21.3798 15.4384 22.0065C15.3143 22.1266 15.1872 22.2436 15.0573 22.3574C14.2813 23.0357 13.5038 23.5169 12.8184 23.759ZM9.93359 18.3083C8.95836 17.975 8.15297 17.5418 7.60094 17.069C7.10484 16.6443 6.85445 16.2225 6.85445 15.8803C6.85445 15.152 7.94016 14.2231 9.75102 13.5918C9.97078 13.5152 10.2008 13.443 10.4395 13.3751C10.6898 14.1892 11.018 15.0404 11.4142 15.9011C11.0129 16.7745 10.6799 17.6393 10.4272 18.463C10.2614 18.4155 10.0968 18.3639 9.93359 18.3083ZM10.9006 11.7255C10.5248 9.80467 10.7744 8.35569 11.4026 7.99202C12.0716 7.60467 13.5512 8.15694 15.1106 9.54163C15.2123 9.63213 15.3124 9.72446 15.4107 9.81858C14.8296 10.4426 14.2555 11.153 13.707 11.927C12.7663 12.0142 11.8659 12.1542 11.0381 12.3418C10.9871 12.1376 10.9413 11.932 10.9006 11.7255ZM19.5277 13.8558C19.3322 13.5181 19.1294 13.1846 18.9195 12.8556C19.5577 12.9363 20.1691 13.0434 20.7432 13.1744C20.5709 13.7269 20.356 14.3044 20.1031 14.8966C19.9183 14.5459 19.7264 14.1989 19.5277 13.8558ZM16.0096 10.4292C16.4037 10.8562 16.7984 11.3328 17.1866 11.85C16.3991 11.8128 15.6102 11.8126 14.8227 11.8495C15.2113 11.3371 15.6094 10.8611 16.0096 10.4292ZM12.4689 13.8617C12.2727 14.202 12.0844 14.5468 11.9043 14.8959C11.6555 14.3058 11.4427 13.7256 11.2688 13.1653C11.8395 13.0376 12.448 12.9333 13.082 12.854C12.8698 13.1851 12.6654 13.5211 12.4689 13.8617ZM13.1002 18.9673C12.4452 18.8942 11.8275 18.7952 11.257 18.671C11.4336 18.1007 11.6512 17.5081 11.9053 16.9054C12.0862 17.2547 12.2752 17.5998 12.4723 17.9402C12.6749 18.2902 12.8848 18.633 13.1002 18.9673ZM16.0332 21.3915C15.6282 20.9547 15.2243 20.4713 14.8298 19.9515C15.2128 19.9665 15.6032 19.9741 16 19.9741C16.4026 19.9741 16.8051 19.9652 17.2073 19.9473C16.8178 20.4765 16.4246 20.9606 16.0332 21.3915ZM20.1112 16.8746C20.3785 17.484 20.6038 18.0734 20.7827 18.634C20.2029 18.7663 19.5768 18.8729 18.9171 18.952C19.1285 18.6169 19.3332 18.2776 19.5311 17.9344C19.7323 17.5855 19.9257 17.2321 20.1112 16.8746ZM18.791 17.5075C18.4881 18.0338 18.1681 18.5501 17.8316 19.0555C17.222 19.0987 16.6111 19.1202 16 19.1198C15.3776 19.1198 14.7722 19.1005 14.1892 19.0626C13.8439 18.5583 13.5178 18.0411 13.2116 17.5122C12.9069 16.986 12.6223 16.4485 12.3584 15.9007C12.6216 15.3528 12.9054 14.815 13.2091 14.2884L13.2091 14.2885C13.5127 13.7618 13.8361 13.2468 14.1788 12.7447C14.7736 12.6997 15.3835 12.6762 15.9999 12.6762C16.6088 12.6761 17.2174 12.6991 17.8245 12.7452C18.1638 13.2466 18.4852 13.7598 18.7882 14.2839C19.0929 14.8093 19.3805 15.3445 19.6504 15.8886C19.3832 16.4382 19.0966 16.9782 18.791 17.5075ZM20.5535 7.96655C21.2232 8.3528 21.4837 9.91038 21.0629 11.953C21.036 12.0833 21.0059 12.216 20.973 12.3506C20.1432 12.159 19.2422 12.0166 18.2988 11.9281C17.7493 11.1455 17.1798 10.434 16.6082 9.81811C16.758 9.6737 16.9114 9.53303 17.0682 9.39624C18.5448 8.11131 19.9248 7.60397 20.5535 7.96655ZM16 14.0944C16.9863 14.0944 17.7859 14.894 17.7859 15.8803C17.7859 16.8666 16.9863 17.6662 16 17.6662C15.0137 17.6662 14.2141 16.8666 14.2141 15.8803C14.2141 14.894 15.0137 14.0944 16 14.0944Z" fill="#00D8FF"/>
</svg>
