<svg width="32" height="32" viewBox="0 0 32 32" fill="none" xmlns="http://www.w3.org/2000/svg">
<rect width="32" height="32" rx="4" fill="#CF649A" fill-opacity="0.1"/>
<path d="M23.2309 17.6485C22.5312 17.6485 21.9083 17.81 21.4009 18.0407C21.2086 17.687 21.0472 17.3717 21.0087 17.1103C20.9703 16.8488 20.9318 16.6797 20.9703 16.326C21.0087 15.9723 21.2009 15.5109 21.2009 15.4648C21.2009 15.4648 21.1625 15.2726 20.7703 15.2726C20.3398 15.2726 19.9861 15.3495 19.9553 15.4648L19.7938 16.0492C19.7169 16.4029 19.0095 17.7254 18.5866 18.3867C18.4252 18.1099 18.3098 17.8792 18.3098 17.7177C18.2714 17.4101 18.2329 17.2487 18.2714 16.9027C18.3098 16.5567 18.5021 16.1184 18.5021 16.0876C18.5021 16.0569 18.4636 15.8569 18.0715 15.8569C17.6409 15.8569 17.2872 15.9338 17.2564 16.0492L17.0949 16.6335L15.7724 19.6015L15.4648 20.3013C15.388 20.4627 15.4648 20.3013 15.4648 20.3397L15.3495 20.5319L15.188 20.7242C15.188 20.7242 15.1496 20.4474 15.2265 20.1013C15.3418 19.3632 15.6955 18.1867 15.6955 18.1099C15.6955 18.1099 15.7724 17.9176 15.4648 17.8023C15.188 17.687 15.1111 17.8792 15.0727 17.8792L15.0343 17.9176C15.0343 17.9176 15.3418 16.5951 14.4114 16.5951C13.8578 16.5951 13.0428 17.2641 12.6506 17.8023L11.3281 18.5404L10.6591 18.8941L10.6207 18.8557C9.4904 17.6485 7.42203 16.8258 7.53736 15.2264C7.53736 14.6421 7.76804 13.1196 11.4742 11.2435C14.5575 9.72102 16.9719 10.1516 17.4025 11.082C18.0253 12.4045 16.1107 14.865 12.9121 15.2187C11.7049 15.3341 11.082 14.865 10.9206 14.7113C10.7591 14.519 10.7283 14.519 10.6438 14.5498C10.5592 14.5805 10.6053 14.742 10.6438 14.8574C10.7591 15.088 11.1512 15.5263 11.8202 15.757C12.4046 15.9492 13.8117 16.0646 15.5264 15.4033C17.441 14.6651 18.9557 12.5968 18.5328 10.8359C18.0638 9.07514 15.1342 8.49845 12.4123 9.46728C10.736 10.0517 8.98292 10.9897 7.69114 12.1969C6.1687 13.604 5.93034 14.8574 6.01492 15.3572C6.40706 17.1872 8.90603 18.3944 9.9133 19.2555L9.79796 19.3324C9.29048 19.6092 7.33745 20.6242 6.8761 21.6699C6.32248 22.8771 6.95299 23.7383 7.38358 23.8536C8.67535 24.2458 10.044 23.5768 10.7437 22.5311C11.4434 21.4392 11.3665 20.0321 11.0513 19.4093L11.0128 19.3709L11.4434 19.1402L12.1431 18.7481C12.0278 19.1018 11.9509 19.4862 11.9125 20.0706C11.8356 20.7395 12.1431 21.6315 12.4968 21.9852C12.6583 22.1466 12.8505 22.1466 12.9659 22.1466C13.3965 22.1466 13.5887 21.7929 13.8271 21.3624L14.3345 20.2705C14.3345 20.2705 14.027 21.8698 14.842 21.8698C15.1188 21.8698 15.4264 21.5161 15.5417 21.3162L15.5802 21.2778L15.6186 21.2009L16.4029 19.763L17.3794 17.5409L17.5717 18.3252C17.6486 18.6327 17.8485 18.948 17.9638 19.2555L17.8023 19.5323L17.4948 19.9245C17.1026 20.3935 16.5951 20.9395 16.5644 21.1009C16.4875 21.2932 16.4875 21.4085 16.6413 21.5315C16.7566 21.6084 16.9488 21.6084 17.1488 21.6084L17.8485 21.4469L18.5174 21.0932C18.9096 20.8164 19.1403 20.3935 19.1018 19.8399C19.1018 19.5631 18.9865 19.2555 18.8711 18.9787L18.9865 18.8173C19.6093 17.9176 20.0783 16.9027 20.0783 16.9027L20.2706 17.7177L20.6243 18.502C20.1552 18.8711 19.8015 19.3632 19.5708 19.9091C19.3402 20.5781 19.4939 20.8395 19.8476 20.9241C20.0091 20.9625 20.2398 20.8856 20.4013 20.8087C20.5935 20.7703 20.8319 20.6473 21.0702 20.5012C21.4624 20.1936 21.8545 19.8015 21.8084 19.2478C21.8084 19.0172 21.7315 18.7404 21.6469 18.5097C22.1159 18.3175 22.7772 18.2021 23.5615 18.3175C25.3223 18.5097 25.6683 19.6092 25.5914 20.0321C25.5145 20.5012 25.1608 20.7318 25.0378 20.8164L24.8763 20.9779C24.9148 21.0548 24.9532 21.0548 25.0686 21.0548C25.1839 21.0163 25.9682 20.6626 25.9989 19.8476C26.0374 18.7557 25.0224 17.5793 23.2232 17.6254L23.2386 17.6408L23.2309 17.6485ZM9.81334 22.139C9.25973 22.7618 8.44468 23.0386 8.09867 22.8079C7.74497 22.6157 7.86799 21.6776 8.60615 21.0163C9.03674 20.6242 9.58267 20.2321 9.92868 20.0014L10.2824 19.8092L10.3208 19.7707L10.4362 19.7323C10.6668 20.6626 10.4362 21.4931 9.81334 22.1466V22.139ZM14.027 19.2863C13.8348 19.7938 13.4042 21.0471 13.1658 20.9625C12.9351 20.9241 12.8121 19.9476 13.0889 19.0095C13.2504 18.5404 13.5964 17.9945 13.7886 17.7562C14.0962 17.4025 14.4576 17.2871 14.5268 17.4486C14.6421 17.6408 14.1346 18.971 14.0193 19.2786L14.027 19.2863ZM17.5025 20.9625L17.3102 21.001V20.9241L17.9331 20.2551L18.2868 19.8245V19.863C18.2868 20.4166 17.7331 20.7934 17.5025 20.9548V20.9625ZM20.1629 20.3397C20.086 20.3013 20.1245 20.1475 20.3244 19.7169C20.4013 19.5247 20.6012 19.2094 20.9087 18.9326L20.9856 19.2863C20.9856 19.986 20.4782 20.2167 20.1706 20.3397H20.1629Z" fill="#CF649A"/>
</svg>
