<svg width="32" height="32" viewBox="0 0 32 32" fill="none" xmlns="http://www.w3.org/2000/svg">
<rect width="32" height="32" rx="4" fill="#FF9800" fill-opacity="0.1"/>
<path d="M23.4022 16.0577C23.4022 15.8269 23.2253 15.6884 23.0175 15.7576L8.39248 20.3967C8.17707 20.466 8.00781 20.7122 8.00781 20.943V25.6821C8.00781 25.9129 8.17707 26.0513 8.39248 25.9821L23.0175 21.343C23.233 21.2738 23.4022 21.0276 23.4022 20.7968V16.0577Z" fill="url(#paint0_linear_868_10)"/>
<path d="M8 15.9115C8 16.1423 8.16925 16.3885 8.38467 16.4578L23.0097 21.0968C23.2251 21.1661 23.3944 21.0276 23.3944 20.7968V16.0577C23.3944 15.8269 23.2251 15.5807 23.0097 15.5115L8.38467 10.8647C8.16925 10.7954 8 10.9339 8 11.1647V15.9038V15.9115Z" fill="#FF9800"/>
<path d="M23.4021 6.31793C23.4021 6.08713 23.2251 5.94865 23.0174 6.01789L8.38467 10.657C8.16925 10.7262 8 10.9724 8 11.2032V15.9423C8 16.1731 8.16925 16.3116 8.38467 16.2423L23.0097 11.6033C23.2251 11.534 23.3944 11.2878 23.3944 11.057V6.31793H23.4021Z" fill="#FF9800"/>
<defs>
<linearGradient id="paint0_linear_868_10" x1="15.7012" y1="21.6661" x2="15.7012" y2="19.0427" gradientUnits="userSpaceOnUse">
<stop stop-color="#FF9700"/>
<stop offset="0.53" stop-color="#F48E00"/>
<stop offset="0.94" stop-color="#D06F00"/>
</linearGradient>
</defs>
</svg>
