<svg width="32" height="32" viewBox="0 0 32 32" fill="none" xmlns="http://www.w3.org/2000/svg">
<rect width="32" height="32" rx="4" fill="#38BDF8" fill-opacity="0.1"/>
<path d="M16 10C13.3308 10 11.6692 11.3308 11 14C12 12.6692 13.1692 12.1692 14.5 12.5C15.2615 12.6923 15.8077 13.2385 16.4077 13.8462C17.3923 14.8385 18.5231 15.9923 21 15.9923C23.6692 15.9923 25.3308 14.6615 26 11.9923C25 13.3231 23.8308 13.8231 22.5 13.4923C21.7385 13.3 21.1923 12.7538 20.5923 12.1462C19.6077 11.1538 18.4769 10 16 10ZM11 16C8.33077 16 6.66923 17.3308 6 20C7 18.6692 8.16923 18.1692 9.5 18.5C10.2615 18.6923 10.8077 19.2385 11.4077 19.8538C12.3923 20.8462 13.5231 22 16 22C18.6692 22 20.3308 20.6692 21 18C20 19.3308 18.8308 19.8308 17.5 19.5C16.7385 19.3077 16.1923 18.7615 15.5923 18.1462C14.6077 17.1538 13.4769 16 11 16Z" fill="#38BDF8"/>
</svg>
