<svg width="32" height="32" viewBox="0 0 32 32" fill="none" xmlns="http://www.w3.org/2000/svg">
<rect width="32" height="32" rx="4" fill="white" fill-opacity="0.1"/>
<path d="M6.2198 6.00002C6.18624 6.00055 6.15322 6.00864 6.12321 6.02369C6.0932 6.03874 6.06697 6.06036 6.04647 6.08695C6.02597 6.11354 6.01173 6.1444 6.0048 6.17725C5.99788 6.2101 5.99845 6.24409 6.00647 6.27669L8.41815 16.0401C8.42007 16.0514 8.42285 16.0625 8.42648 16.0734L10.8348 25.8301C10.8442 25.8683 10.8636 25.9033 10.8908 25.9316C10.9181 25.9599 10.9524 25.9805 10.9902 25.9914C11.028 26.0022 11.068 26.0028 11.1061 25.9933C11.1442 25.9837 11.1791 25.9642 11.2073 25.9368L25.7383 11.9584C25.7664 11.9312 25.7868 11.897 25.7976 11.8594C25.8084 11.8218 25.8091 11.782 25.7996 11.744C25.7902 11.706 25.7709 11.6712 25.7438 11.643C25.7166 11.6148 25.6825 11.5943 25.6449 11.5834L20.8249 10.1942C20.7936 10.1764 20.7584 10.1664 20.7224 10.165L11.2198 7.42919C11.1838 7.40693 11.1422 7.39537 11.0998 7.39586L6.28314 6.00835C6.26253 6.00255 6.2412 5.99975 6.2198 6.00002ZM6.53147 6.54502L10.6615 7.73336L7.56148 10.72L6.53147 6.54502ZM11.4115 7.95003L15.4649 9.1167L12.4232 12.0459L11.4115 7.95003ZM10.9765 8.05003L11.9907 12.1551L7.92648 10.9884L10.9765 8.05003ZM16.2099 9.33171L20.2749 10.5017L17.2232 13.4434L16.2099 9.33171ZM15.7765 9.44004L16.7832 13.5234L12.739 12.3634L15.7765 9.44004ZM21.0266 10.7184L25.1491 11.9051L22.0532 14.8834L21.0266 10.7184ZM20.5899 10.8184L21.6024 14.9234L17.539 13.7584L20.5899 10.8184ZM7.72981 11.3984L11.8665 12.5851L8.76149 15.5734L7.72981 11.3984ZM12.609 12.7917L16.6732 13.9584L13.6232 16.8976L12.609 12.7917ZM12.1773 12.9059L13.2073 17.0868L9.07149 15.8934L12.1773 12.9059ZM17.4057 14.1851L21.5432 15.3726L18.4349 18.3609L17.4057 14.1851ZM16.9724 14.2909L18.0015 18.4676L13.8699 17.2759L16.9724 14.2909ZM8.94732 16.3226L13.0082 17.4943L9.96149 20.4301L8.94732 16.3226ZM13.8257 17.7284L17.8782 18.8976L14.8382 21.8226L13.8257 17.7284ZM13.3757 17.7618L14.3874 21.8676L10.3248 20.7009L13.3757 17.7618ZM10.129 21.1118L14.3265 22.3135L11.1748 25.3451L10.129 21.1118Z" fill="black"/>
</svg>
