<svg xmlns="http://www.w3.org/2000/svg" width="32" height="32" fill="none" xmlns:v="https://vecta.io/nano"><rect width="32" height="32" rx="4" fill="#ccc" fill-opacity=".1"/><path d="M6.22 6c-.034.001-.067.009-.097.024s-.056.037-.077.063-.035.057-.042.09-.006.067.002.099l2.412 9.763c.002.011.005.022.008.033l2.408 9.757c.009.038.029.073.056.101s.062.049.099.06.078.011.116.002.073-.029.101-.056l14.531-13.978c.028-.027.049-.061.059-.099s.012-.077.002-.115-.029-.073-.056-.101-.061-.049-.099-.06l-4.82-1.389c-.031-.018-.066-.028-.102-.029L11.22 7.429c-.036-.022-.078-.034-.12-.033L6.283 6.008C6.263 6.003 6.241 6 6.22 6zm.312.545l4.13 1.188-3.1 2.987-1.03-4.175zm4.88 1.405l4.053 1.167-3.042 2.929-1.012-4.096zm-.435.1l1.014 4.105-4.064-1.167 3.05-2.938zm5.233 1.282l4.065 1.17-3.052 2.942-1.013-4.112zm-.433.108l1.007 4.083-4.044-1.16 3.037-2.923zm5.25 1.278l4.123 1.187-3.096 2.978-1.027-4.165zm-.437.1l1.012 4.105-4.063-1.165 3.051-2.94zm-12.86.58l4.137 1.187-3.105 2.988-1.032-4.175zm4.879 1.393l4.064 1.167-3.05 2.939-1.014-4.106zm-.432.114l1.03 4.181-4.136-1.193 3.106-2.987zm5.228 1.279l4.137 1.188-3.108 2.988-1.029-4.176zm-.433.106l1.029 4.177-4.132-1.192 3.103-2.985zm-8.025 2.032l4.061 1.172-3.047 2.936-1.014-4.107zm4.878 1.406l4.053 1.169-3.04 2.925-1.013-4.094zm-.45.033l1.012 4.106-4.063-1.167 3.051-2.939zm-3.247 3.35l4.198 1.202-3.152 3.032-1.046-4.233z" fill="#606060"/></svg>