<svg width="32" height="32" viewBox="0 0 32 32" fill="none" xmlns="http://www.w3.org/2000/svg">
<rect width="32" height="32" rx="4" fill="#2F74C0" fill-opacity="0.1"/>
<path d="M7.5625 6H24.4375C25.3005 6 26 6.69953 26 7.5625V24.4375C26 25.3005 25.3005 26 24.4375 26H7.5625C6.69953 26 6 25.3005 6 24.4375V7.5625C6 6.69953 6.69953 6 7.5625 6Z" fill="#3178C6"/>
<path d="M18.5294 21.5931V23.4919C18.8382 23.6502 19.2035 23.7689 19.6251 23.848C20.0467 23.9271 20.4911 23.9667 20.9584 23.9667C21.4136 23.9667 21.8462 23.9231 22.256 23.8361C22.6657 23.7491 23.0251 23.6057 23.3338 23.4059C23.6394 23.2096 23.8915 22.9404 24.0673 22.6226C24.2474 22.3002 24.3375 21.9017 24.3375 21.427C24.3375 21.0828 24.286 20.7811 24.1831 20.522C24.0813 20.2646 23.93 20.0298 23.7377 19.8307C23.5437 19.6289 23.3111 19.448 23.0399 19.2877C22.7688 19.1275 22.4628 18.9762 22.1223 18.8339C21.8729 18.7309 21.6492 18.6311 21.4512 18.5342C21.2532 18.4372 21.085 18.3384 20.9465 18.2374C20.8079 18.1365 20.701 18.0298 20.6258 17.917C20.5505 17.8043 20.5129 17.6767 20.5129 17.5343C20.5129 17.4037 20.5466 17.2861 20.6139 17.1812C20.6812 17.0764 20.7763 16.9864 20.899 16.9113C21.0217 16.8361 21.1721 16.7777 21.3503 16.7361C21.5285 16.6946 21.7264 16.6739 21.9442 16.6739C22.1026 16.6739 22.2698 16.6858 22.446 16.7095C22.6221 16.7332 22.7994 16.7698 22.9776 16.8193C23.1552 16.8685 23.3289 16.931 23.4972 17.0062C23.6604 17.0785 23.8164 17.1659 23.9634 17.2672V15.493C23.6743 15.3823 23.3586 15.3002 23.0161 15.2468C22.6737 15.1933 22.2807 15.1667 21.8373 15.1667C21.3859 15.1667 20.9584 15.2151 20.5545 15.3121C20.1507 15.409 19.7953 15.5603 19.4885 15.766C19.1817 15.9717 18.9392 16.2338 18.761 16.5522C18.5828 16.8707 18.4938 17.2514 18.4938 17.6945C18.4938 18.2602 18.657 18.7428 18.9837 19.1424C19.3104 19.542 19.8062 19.8802 20.4713 20.1571C20.7169 20.2571 20.9604 20.3619 21.2018 20.4716C21.4275 20.5745 21.6225 20.6812 21.7868 20.792C21.9511 20.9027 22.0808 21.0234 22.1758 21.154C22.2708 21.2845 22.3183 21.4329 22.3183 21.599C22.3191 21.7186 22.2884 21.8363 22.2292 21.9402C22.1699 22.045 22.0798 22.1361 21.959 22.2132C21.8383 22.2903 21.6878 22.3506 21.5077 22.3941C21.3276 22.4377 21.1167 22.4595 20.8752 22.4595C20.4634 22.4595 20.0557 22.3873 19.6518 22.2428C19.248 22.0984 18.8738 21.8819 18.5294 21.5931ZM15.3644 16.8677H17.8063V15.3042H11V16.8677H13.43V23.8292H15.3644V16.8677Z" fill="white"/>
</svg>
