<svg width="32" height="32" viewBox="0 0 32 32" fill="none" xmlns="http://www.w3.org/2000/svg">
<rect width="32" height="32" rx="4" fill="#7392FF" fill-opacity="0.1"/>
<path d="M25.9025 8.96953L16.523 25.7376C16.3314 26.0874 15.8316 26.0874 15.6317 25.7376L6.06902 8.96953C5.85245 8.59469 6.17731 8.13654 6.60214 8.21151L15.9899 9.88582C16.0482 9.89415 16.1149 9.89415 16.1732 9.88582L25.3694 8.21151C25.7942 8.13654 26.1191 8.58636 25.9025 8.9612V8.96953Z" fill="url(#paint0_linear_868_32)"/>
<path d="M20.462 6.02077L13.5232 7.37854C13.4066 7.40353 13.3233 7.49516 13.3149 7.61177L12.8901 14.8255C12.8818 14.9671 12.9901 15.0837 13.1317 15.092H13.2066L15.1392 14.6422C15.3224 14.6005 15.4807 14.7588 15.4474 14.9421L14.8726 17.7576C14.831 17.9492 15.0142 18.1074 15.1975 18.0491L16.3886 17.6826C16.5719 17.6243 16.7552 17.7909 16.7135 17.9741L15.7972 22.389C15.7389 22.6639 16.1054 22.8138 16.2637 22.5806L16.3637 22.4223L22.0196 11.1353C22.1113 10.9437 21.953 10.7272 21.7448 10.7688L19.7539 11.152C19.5707 11.1853 19.4041 11.0104 19.4624 10.8271L20.7618 6.32897C20.8118 6.14571 20.6535 5.97079 20.4703 6.00411L20.462 6.02077Z" fill="url(#paint1_linear_868_32)"/>
<defs>
<linearGradient id="paint0_linear_868_32" x1="9.56757" y1="5.99077" x2="20.6993" y2="20.5637" gradientUnits="userSpaceOnUse">
<stop stop-color="#41D1FF"/>
<stop offset="1" stop-color="#BD34FE"/>
</linearGradient>
<linearGradient id="paint1_linear_868_32" x1="16.5902" y1="6.15404" x2="19.7277" y2="19.9227" gradientUnits="userSpaceOnUse">
<stop stop-color="#FFEA83"/>
<stop offset="0.08" stop-color="#FFDD35"/>
<stop offset="1" stop-color="#FFA800"/>
</linearGradient>
</defs>
</svg>
