<svg width="32" height="32" viewBox="0 0 32 32" fill="none" xmlns="http://www.w3.org/2000/svg">
<rect width="32" height="32" rx="4" fill="#1F9CF0" fill-opacity="0.1"/>
<path d="M25.2924 8.10764L21.1774 6.12322C20.9445 6.01157 20.6829 5.97456 20.4282 6.01724C20.1735 6.05992 19.9382 6.1802 19.7544 6.36166L6.27113 18.6605C5.90962 18.9912 5.90962 19.5604 6.27113 19.8911L7.37102 20.891C7.67099 21.1602 8.1171 21.1833 8.43246 20.9372L24.6694 8.62298C24.8449 8.49078 25.0658 8.43355 25.2834 8.46383C25.5011 8.4941 25.6979 8.60941 25.8308 8.7845C25.9385 8.93064 26 9.09985 26 9.28445V9.2383C26 8.76142 25.7231 8.32301 25.2924 8.11533V8.10764Z" fill="#0065A9"/>
<path d="M25.2924 23.7831L21.1774 25.7675C20.7005 25.9982 20.1313 25.8982 19.7544 25.529L6.27113 13.2302C5.90962 12.8995 5.90962 12.3303 6.27113 11.9996L7.37102 10.9997C7.67099 10.7305 8.1171 10.7074 8.43246 10.9535L24.6694 23.2677C25.2155 23.6831 26 23.2908 26 22.6062V22.6524C26 23.1293 25.7231 23.5677 25.2924 23.7754V23.7831Z" fill="#007ACC"/>
<path d="M21.1622 25.7675C20.6853 25.9982 20.1161 25.8982 19.7393 25.5291C20.0238 25.8136 20.4853 25.8136 20.7699 25.5291C20.9084 25.3906 20.9853 25.206 20.9853 25.0137V6.89238C20.9853 6.49242 20.6546 6.16168 20.2546 6.16168C20.0623 6.16168 19.8777 6.2386 19.7393 6.37705C20.1161 6.00016 20.6853 5.90786 21.1622 6.13861L25.2772 8.11534C25.7079 8.32301 25.9848 8.76143 25.9848 9.23831V22.6601C25.9848 23.137 25.7079 23.5754 25.2772 23.7831L21.1622 25.7598V25.7675Z" fill="#1F9CF0"/>
</svg>
